<svg width="12" height="13" viewBox="0 0 12 13" fill="none" xmlns="http://www.w3.org/2000/svg">
<path fill-rule="evenodd" clip-rule="evenodd" d="M0 6.85672C0 3.50834 2.68629 0.793945 6 0.793945C7.5913 0.793945 9.11742 1.4327 10.2426 2.56969C11.3679 3.70668 12 5.24877 12 6.85672C12 10.2051 9.31371 12.9195 6 12.9195C2.68629 12.9195 0 10.2051 0 6.85672ZM7.94492 8.19661C7.94492 8.11623 7.91201 8.03942 7.854 7.98442L6.74401 6.85675L7.854 5.72909C7.91201 5.67408 7.94492 5.59727 7.94492 5.51689C7.94492 5.43651 7.91201 5.3597 7.854 5.3047L7.53601 4.98337C7.48157 4.92476 7.40556 4.89151 7.32601 4.89151C7.24646 4.89151 7.17045 4.92476 7.11601 4.98337L6.00002 6.10497L4.88402 4.98337C4.82958 4.92476 4.75357 4.89151 4.67402 4.89151C4.59447 4.89151 4.51846 4.92476 4.46402 4.98337L4.14603 5.3047C4.08802 5.3597 4.05511 5.43651 4.05511 5.51689C4.05511 5.59727 4.08802 5.67408 4.14603 5.72909L5.25602 6.85675L4.14603 7.98442C4.08802 8.03942 4.05511 8.11623 4.05511 8.19661C4.05511 8.27699 4.08802 8.3538 4.14603 8.40881L4.46402 8.73013C4.51846 8.78874 4.59447 8.82199 4.67402 8.82199C4.75357 8.82199 4.82958 8.78874 4.88402 8.73013L6.00002 7.60853L7.11601 8.73013C7.17045 8.78874 7.24646 8.82199 7.32601 8.82199C7.40556 8.82199 7.48157 8.78874 7.53601 8.73013L7.854 8.40881C7.91201 8.3538 7.94492 8.27699 7.94492 8.19661Z" fill="#D8D8D8"/>
</svg>
