<svg width="0" height="0" class="hidden">
  <symbol fill="none" xmlns="http://www.w3.org/2000/svg" viewBox="0 0 20 17" id="twitter">
    <path d="M19.9708 2.46378C19.4547 3.15213 18.8309 3.75258 18.1235 4.24195C18.1235 4.42177 18.1235 4.60158 18.1235 4.79139C18.1292 8.0568 16.8249 11.1879 14.5029 13.4828C12.181 15.7777 9.03567 17.0443 5.77211 16.9988C3.88538 17.0051 2.02281 16.5743 0.330301 15.7401C0.239042 15.7003 0.18018 15.61 0.180527 15.5103V15.4005C0.180527 15.257 0.296758 15.1407 0.440136 15.1407C2.29475 15.0796 4.0832 14.4366 5.55244 13.3026C3.87376 13.2688 2.36338 12.2744 1.66829 10.7453C1.63318 10.6617 1.64411 10.5659 1.69713 10.4925C1.75016 10.419 1.83761 10.3785 1.9279 10.3856C2.43809 10.4369 2.95337 10.3894 3.44561 10.2458C1.59249 9.86109 0.200074 8.32265 0.000797149 6.43969C-0.00628542 6.34936 0.0341943 6.26187 0.107613 6.20882C0.181031 6.15577 0.276775 6.14483 0.360256 6.17996C0.857554 6.39939 1.39439 6.51496 1.93788 6.51961C0.314106 5.45384 -0.387258 3.42672 0.230452 1.58469C0.294214 1.4057 0.447402 1.27347 0.633723 1.2366C0.820043 1.19972 1.01201 1.26365 1.13908 1.40487C3.33027 3.73695 6.34099 5.12662 9.53645 5.28088C9.4546 4.95427 9.41434 4.61862 9.41663 4.28191C9.44652 2.51636 10.5389 0.943567 12.1825 0.299861C13.826 -0.343846 15.6953 0.0689272 16.9153 1.34494C17.747 1.18651 18.551 0.907164 19.3018 0.515789C19.3568 0.481454 19.4265 0.481454 19.4815 0.515789C19.5158 0.57081 19.5158 0.640583 19.4815 0.695604C19.1178 1.52835 18.5035 2.2268 17.7241 2.69355C18.4066 2.6144 19.0771 2.45341 19.7211 2.21404C19.7754 2.17713 19.8466 2.17713 19.9009 2.21404C19.9463 2.23482 19.9802 2.27457 19.9937 2.32269C20.0072 2.37081 19.9988 2.42242 19.9708 2.46378Z" fill="#707070"></path>
  </symbol>
  <symbol fill="none" xmlns="http://www.w3.org/2000/svg" viewBox="0 0 22 22" id="user">
    <path fill-rule="evenodd" clip-rule="evenodd" d="M16.0015 6C16.0015 8.76142 13.7623 11 11 11C8.23777 11 5.99851 8.76142 5.99851 6C5.99851 3.23858 8.23777 1 11 1C13.7623 1 16.0015 3.23858 16.0015 6ZM14.001 5.99999C14.001 4.34314 12.6575 2.99999 11.0001 2.99999C9.34275 2.99999 7.99919 4.34314 7.99919 5.99999C7.99919 7.65684 9.34275 8.99999 11.0001 8.99999C12.6575 8.99999 14.001 7.65684 14.001 5.99999ZM20.893 19.55L19.0024 15.76C18.1545 14.0683 16.4239 13.0001 14.5311 13H7.46893C5.57614 13.0001 3.84555 14.0683 2.99758 15.76L1.10701 19.55C0.950991 19.8595 0.966419 20.2277 1.14778 20.5231C1.32915 20.8185 1.65058 20.9989 1.99728 21H20.0027C20.3494 20.9989 20.6709 20.8185 20.8522 20.5231C21.0336 20.2277 21.049 19.8595 20.893 19.55ZM4.78818 16.66L3.61782 19H18.3823L17.2119 16.66C16.7046 15.644 15.667 15.0015 14.5311 15H7.46899C6.33315 15.0015 5.29552 15.644 4.78818 16.66Z" fill="black"></path>
    <path d="M19.0024 15.76L19.4498 15.5368L19.4494 15.5359L19.0024 15.76ZM20.893 19.55L20.4456 19.7732L20.4465 19.775L20.893 19.55ZM14.5311 13L14.5311 12.5H14.5311V13ZM7.46893 13V12.5H7.46891L7.46893 13ZM2.99758 15.76L2.55059 15.5359L2.55016 15.5368L2.99758 15.76ZM1.10701 19.55L1.5535 19.775L1.55443 19.7732L1.10701 19.55ZM1.14778 20.5231L0.721686 20.7847L1.14778 20.5231ZM1.99728 21L1.99577 21.5H1.99728V21ZM20.0027 21V21.5L20.0042 21.5L20.0027 21ZM3.61782 19L3.17064 18.7763L2.8087 19.5H3.61782V19ZM4.78818 16.66L5.23536 16.8836L5.2355 16.8834L4.78818 16.66ZM18.3823 19V19.5H19.1914L18.8295 18.7763L18.3823 19ZM17.2119 16.66L16.7646 16.8834L16.7647 16.8836L17.2119 16.66ZM14.5311 15L14.5318 14.5H14.5311V15ZM7.46899 15V14.5H7.46831L7.46899 15ZM11 11.5C14.0383 11.5 16.5015 9.03771 16.5015 6H15.5015C15.5015 8.48514 13.4863 10.5 11 10.5V11.5ZM5.49851 6C5.49851 9.03771 7.96177 11.5 11 11.5V10.5C8.51377 10.5 6.49851 8.48514 6.49851 6H5.49851ZM11 0.5C7.96177 0.5 5.49851 2.96229 5.49851 6H6.49851C6.49851 3.51486 8.51377 1.5 11 1.5V0.5ZM16.5015 6C16.5015 2.96229 14.0383 0.5 11 0.5V1.5C13.4863 1.5 15.5015 3.51486 15.5015 6H16.5015ZM11.0001 3.49999C12.3815 3.49999 13.501 4.61942 13.501 5.99999H14.501C14.501 4.06685 12.9335 2.49999 11.0001 2.49999V3.49999ZM8.49919 5.99999C8.49919 4.61942 9.61875 3.49999 11.0001 3.49999V2.49999C9.06675 2.49999 7.49919 4.06685 7.49919 5.99999H8.49919ZM11.0001 8.49999C9.61875 8.49999 8.49919 7.38056 8.49919 5.99999H7.49919C7.49919 7.93313 9.06675 9.49999 11.0001 9.49999V8.49999ZM13.501 5.99999C13.501 7.38056 12.3815 8.49999 11.0001 8.49999V9.49999C12.9335 9.49999 14.501 7.93313 14.501 5.99999H13.501ZM18.555 15.9832L20.4456 19.7732L21.3404 19.3268L19.4498 15.5368L18.555 15.9832ZM14.5311 13.5C16.2347 13.5 17.7923 14.4615 18.5554 15.984L19.4494 15.5359C18.5166 13.675 16.613 12.5001 14.5311 12.5L14.5311 13.5ZM7.46893 13.5H14.5311V12.5H7.46893V13.5ZM3.44457 15.984C4.20773 14.4615 5.7653 13.5 7.46895 13.5L7.46891 12.5C5.38699 12.5001 3.48337 13.675 2.55059 15.5359L3.44457 15.984ZM1.55443 19.7732L3.445 15.9832L2.55016 15.5368L0.659585 19.3268L1.55443 19.7732ZM1.57388 20.2615C1.48321 20.1138 1.4755 19.9298 1.55349 19.775L0.660521 19.3249C0.426479 19.7892 0.449627 20.3416 0.721686 20.7847L1.57388 20.2615ZM1.99879 20.5C1.82532 20.4995 1.66456 20.4092 1.57388 20.2615L0.721686 20.7847C0.993735 21.2278 1.47584 21.4984 1.99577 21.5L1.99879 20.5ZM20.0027 20.5H1.99728V21.5H20.0027V20.5ZM20.4261 20.2615C20.3354 20.4092 20.1747 20.4995 20.0012 20.5L20.0042 21.5C20.5242 21.4984 21.0063 21.2278 21.2783 20.7847L20.4261 20.2615ZM20.4465 19.775C20.5245 19.9298 20.5168 20.1138 20.4261 20.2615L21.2783 20.7847C21.5504 20.3416 21.5735 19.7892 21.3395 19.3249L20.4465 19.775ZM4.06501 19.2236L5.23536 16.8836L4.34099 16.4363L3.17064 18.7763L4.06501 19.2236ZM18.3823 18.5H3.61782V19.5H18.3823V18.5ZM16.7647 16.8836L17.9351 19.2236L18.8295 18.7763L17.6591 16.4363L16.7647 16.8836ZM14.5304 15.5C15.4771 15.5013 16.3418 16.0368 16.7646 16.8834L17.6593 16.4366C17.0673 15.2513 15.8568 14.5018 14.5318 14.5L14.5304 15.5ZM7.46899 15.5H14.5311V14.5H7.46899V15.5ZM5.2355 16.8834C5.65828 16.0368 6.523 15.5013 7.46967 15.5L7.46831 14.5C6.14329 14.5018 4.93277 15.2513 4.34085 16.4366L5.2355 16.8834Z" fill="white"></path>
  </symbol>
  <symbol fill="none" xmlns="http://www.w3.org/2000/svg" viewBox="0 0 20 20" id="verify">
    <path fill-rule="evenodd" clip-rule="evenodd" d="M0 10C0 4.47715 4.47715 0 10 0C12.6522 0 15.1957 1.05357 17.0711 2.92893C18.9464 4.8043 20 7.34784 20 10C20 15.5228 15.5228 20 10 20C4.47715 20 0 15.5228 0 10ZM8.7301 13.35L14.3501 7.73004C14.5342 7.53689 14.5342 7.23319 14.3501 7.04004L13.8201 6.51004C13.6257 6.31947 13.3145 6.31947 13.1201 6.51004L8.3801 11.25L6.8801 9.76004C6.78936 9.66336 6.66268 9.60852 6.5301 9.60852C6.39751 9.60852 6.27083 9.66336 6.1801 9.76004L5.6501 10.29C5.55544 10.3839 5.5022 10.5117 5.5022 10.645C5.5022 10.7784 5.55544 10.9062 5.6501 11L8.0301 13.35C8.12083 13.4467 8.24751 13.5016 8.3801 13.5016C8.51268 13.5016 8.63936 13.4467 8.7301 13.35Z" fill="#A18A68"></path>
  </symbol>
  <symbol fill="none" xmlns="http://www.w3.org/2000/svg" viewBox="0 0 25 9" id="arrow">
    <path d="M0 4.99124V3.74124C0 3.39606 0.279908 3.11624 0.625193 3.11624H20.0062V0.616238C20.0097 0.366191 20.1619 0.142308 20.3933 0.0470931C20.6246 -0.0481216 20.8904 0.00366328 21.069 0.178738L24.8201 3.92874C25.0599 4.17601 25.0599 4.56897 24.8201 4.81624L21.069 8.56624C20.8887 8.74287 20.6199 8.79382 20.3875 8.69542C20.1551 8.59702 20.0047 8.36856 20.0062 8.11624V5.61624H0.625193C0.279908 5.61624 0 5.33642 0 4.99124Z" fill="#707070"></path>
  </symbol>
  <symbol fill="none" xmlns="http://www.w3.org/2000/svg" viewBox="0 0 14 8" id="caret">
    <path d="M12.6551 0.103514C12.7208 0.0372643 12.8103 -5.20037e-08 12.9036 -4.7925e-08C12.9969 -4.38464e-08 13.0864 0.0372643 13.1521 0.103514L13.894 0.845401C13.9616 0.908905 14 0.997568 14 1.09036C14 1.18316 13.9616 1.27182 13.894 1.33533L7.46193 7.76735C7.36358 7.86582 7.23016 7.9212 7.09099 7.92133L6.90901 7.92133C6.76984 7.9212 6.63642 7.86582 6.53807 7.76735L0.106047 1.33533C0.0383834 1.27182 9.01957e-07 1.18316 9.06013e-07 1.09036C9.10069e-07 0.997567 0.0383834 0.908904 0.106047 0.8454L0.847934 0.103513C0.913642 0.0372638 1.00309 -5.68113e-07 1.0964 -5.64034e-07C1.18971 -5.59956e-07 1.27915 0.0372638 1.34486 0.103513L7 5.75865L12.6551 0.103514Z" fill="black"></path>
  </symbol>
  <symbol fill="none" xmlns="http://www.w3.org/2000/svg" viewBox="0 0 12 13" id="circle-x">
    <path fill-rule="evenodd" clip-rule="evenodd" d="M0 6.85672C0 3.50834 2.68629 0.793945 6 0.793945C7.5913 0.793945 9.11742 1.4327 10.2426 2.56969C11.3679 3.70668 12 5.24877 12 6.85672C12 10.2051 9.31371 12.9195 6 12.9195C2.68629 12.9195 0 10.2051 0 6.85672ZM7.94492 8.19661C7.94492 8.11623 7.91201 8.03942 7.854 7.98442L6.74401 6.85675L7.854 5.72909C7.91201 5.67408 7.94492 5.59727 7.94492 5.51689C7.94492 5.43651 7.91201 5.3597 7.854 5.3047L7.53601 4.98337C7.48157 4.92476 7.40556 4.89151 7.32601 4.89151C7.24646 4.89151 7.17045 4.92476 7.11601 4.98337L6.00002 6.10497L4.88402 4.98337C4.82958 4.92476 4.75357 4.89151 4.67402 4.89151C4.59447 4.89151 4.51846 4.92476 4.46402 4.98337L4.14603 5.3047C4.08802 5.3597 4.05511 5.43651 4.05511 5.51689C4.05511 5.59727 4.08802 5.67408 4.14603 5.72909L5.25602 6.85675L4.14603 7.98442C4.08802 8.03942 4.05511 8.11623 4.05511 8.19661C4.05511 8.27699 4.08802 8.3538 4.14603 8.40881L4.46402 8.73013C4.51846 8.78874 4.59447 8.82199 4.67402 8.82199C4.75357 8.82199 4.82958 8.78874 4.88402 8.73013L6.00002 7.60853L7.11601 8.73013C7.17045 8.78874 7.24646 8.82199 7.32601 8.82199C7.40556 8.82199 7.48157 8.78874 7.53601 8.73013L7.854 8.40881C7.91201 8.3538 7.94492 8.27699 7.94492 8.19661Z" fill="#D8D8D8"></path>
  </symbol>
  <symbol fill="none" xmlns="http://www.w3.org/2000/svg" viewBox="0 0 14 14" id="close">
    <path d="M1 1.18344L12.8166 13M1 12.8166L12.8166 1" stroke="black" stroke-width="1.5"></path>
  </symbol>
  <symbol fill="none" xmlns="http://www.w3.org/2000/svg" viewBox="0 0 10 18" id="facebook">
    <path d="M9.5 3H6.5C5.94772 3 5.5 3.44772 5.5 4V7H9.5C9.61374 6.99748 9.7216 7.05039 9.78923 7.14188C9.85685 7.23336 9.87578 7.35201 9.84 7.46L9.1 9.66C9.03181 9.86192 8.84312 9.99842 8.63 10H5.5V17.5C5.5 17.7761 5.27614 18 5 18H2.5C2.22386 18 2 17.7761 2 17.5V10H0.5C0.223858 10 0 9.77614 0 9.5V7.5C0 7.22386 0.223858 7 0.5 7H2V4C2 1.79086 3.79086 0 6 0H9.5C9.77614 0 10 0.223858 10 0.5V2.5C10 2.77614 9.77614 3 9.5 3Z" fill="#707070"></path>
  </symbol>
  <symbol fill="none" xmlns="http://www.w3.org/2000/svg" viewBox="0 0 20 18" id="heart">
    <path fill-rule="evenodd" clip-rule="evenodd" d="M9.88013 2.01405C11.0249 0.77861 12.6287 0.0520888 14.3262 0C17.3273 0 19.7603 2.39588 19.7603 5.35135C19.7603 8.85038 15.8104 12.6852 13.4415 14.9851C13.2282 15.1921 13.0278 15.3868 12.8442 15.5676L10.5915 17.7859C10.4527 17.9228 10.2643 17.9998 10.0678 18H9.6924C9.49594 17.9998 9.30759 17.9228 9.16876 17.7859L6.91609 15.5676C6.73248 15.3868 6.53202 15.1921 6.31874 14.9851C3.94983 12.6852 0 8.85038 0 5.35135C0 2.39588 2.43292 0 5.43407 0C7.13157 0.0520888 8.73538 0.77861 9.88013 2.01405ZM9.88027 15.7328L12.0539 13.6215C14.0596 11.6756 17.7844 8.03664 17.7844 5.35123C17.7844 4.44299 17.416 3.57235 16.7611 2.93287C16.1061 2.29339 15.2189 1.93805 14.2967 1.94583C12.7606 2.08626 11.3741 2.91055 10.5324 4.18367C10.4381 4.30499 10.2923 4.37677 10.1372 4.37826H9.69255C9.46171 4.37765 9.24364 4.27385 9.09974 4.0961C8.27139 2.8699 6.92358 2.07925 5.43421 1.94583C3.52439 1.94583 1.97617 3.47048 1.97617 5.35123C1.97617 8.03664 5.70098 11.6756 7.70664 13.6215L9.88027 15.7328Z" fill="#707070"></path>
  </symbol>
  <symbol fill="none" xmlns="http://www.w3.org/2000/svg" viewBox="0 0 18 18" id="instagram">
    <path fill-rule="evenodd" clip-rule="evenodd" d="M13 0H5C2.23858 0 0 2.23858 0 5V13C0 15.7614 2.23858 18 5 18H13C15.7614 18 18 15.7614 18 13V5C18 2.23858 15.7614 0 13 0ZM16.25 13C16.2445 14.7926 14.7926 16.2445 13 16.25H5C3.20735 16.2445 1.75549 14.7926 1.75 13V5C1.75549 3.20735 3.20735 1.75549 5 1.75H13C14.7926 1.75549 16.2445 3.20735 16.25 5V13ZM13.75 5.25C14.3023 5.25 14.75 4.80228 14.75 4.25C14.75 3.69772 14.3023 3.25 13.75 3.25C13.1977 3.25 12.75 3.69772 12.75 4.25C12.75 4.80228 13.1977 5.25 13.75 5.25ZM9 4.50001C6.51472 4.50001 4.5 6.51473 4.5 9.00001C4.5 11.4853 6.51472 13.5 9 13.5C11.4853 13.5 13.5 11.4853 13.5 9.00001C13.5027 7.80572 13.0294 6.65958 12.1849 5.81509C11.3404 4.9706 10.1943 4.49735 9 4.50001ZM6.25 9C6.25 10.5188 7.48122 11.75 9 11.75C10.5188 11.75 11.75 10.5188 11.75 9C11.75 7.48122 10.5188 6.25 9 6.25C7.48122 6.25 6.25 7.48122 6.25 9Z" fill="#707070"></path>
  </symbol>
  <symbol fill="none" xmlns="http://www.w3.org/2000/svg" viewBox="0 0 22 18" id="letter">
    <path fill-rule="evenodd" clip-rule="evenodd" d="M19.125 0.947266H2.125C0.951395 0.947266 0 1.84859 0 2.96043V15.0394C0 16.1512 0.951395 17.0526 2.125 17.0526H19.125C20.2986 17.0526 21.25 16.1512 21.25 15.0394V2.96043C21.25 1.84859 20.2986 0.947266 19.125 0.947266ZM19.125 2.96045V5.87953L11.3156 11.0634C10.9003 11.3365 10.3497 11.3365 9.93437 11.0634L2.125 5.87953V2.96045H19.125ZM2.125 7.99332V15.0394H19.125V7.99332L12.3781 12.4626C11.3252 13.1598 9.92476 13.1598 8.87187 12.4626L2.125 7.99332Z" fill="#707070"></path>
  </symbol>
  <symbol fill="none" xmlns="http://www.w3.org/2000/svg" viewBox="0 0 19 18" id="linkedin">
    <path fill-rule="evenodd" clip-rule="evenodd" d="M0 2.11765C0 0.948103 0.948103 0 2.11765 0C2.67928 0 3.21791 0.223109 3.61505 0.620245C4.01219 1.01738 4.23529 1.55601 4.23529 2.11765C4.23529 3.28719 3.28719 4.23529 2.11765 4.23529C0.948103 4.23529 0 3.28719 0 2.11765ZM18.5295 11.0223C18.566 8.72983 17.002 6.72095 14.7707 6.19406C13.2753 5.87207 11.7167 6.2943 10.5883 7.327V6.8823C10.5883 6.58991 10.3513 6.35288 10.0589 6.35288H7.41183C7.11945 6.35288 6.88242 6.58991 6.88242 6.8823V17.4705C6.88242 17.7629 7.11945 17.9999 7.41183 17.9999H10.0589C10.3513 17.9999 10.5883 17.7629 10.5883 17.4705V11.4988C10.5622 10.4354 11.3033 9.50677 12.346 9.29641C12.9668 9.18924 13.6031 9.36408 14.0821 9.77342C14.561 10.1828 14.8328 10.7841 14.8236 11.4141V17.4705C14.8236 17.7629 15.0606 17.9999 15.353 17.9999H18.0001C18.2925 17.9999 18.5295 17.7629 18.5295 17.4705V11.0223ZM4.23528 6.88229V17.4705C4.23528 17.7629 3.99825 17.9999 3.70587 17.9999H1.05881C0.76642 17.9999 0.529395 17.7629 0.529395 17.4705V6.88229C0.529395 6.58991 0.76642 6.35288 1.05881 6.35288H3.70587C3.99825 6.35288 4.23528 6.58991 4.23528 6.88229Z" fill="#707070"></path>
  </symbol>
  <symbol fill="none" xmlns="http://www.w3.org/2000/svg" viewBox="0 0 21 21" id="search">
    <path fill-rule="evenodd" clip-rule="evenodd" d="M15.6431 14.1474L19.8645 18.3747C20.053 18.5844 20.0437 18.9055 19.8434 19.1039L19.1047 19.8437C19.0056 19.9437 18.8707 20 18.73 20C18.5893 20 18.4544 19.9437 18.3553 19.8437L14.1339 15.6164C14.0172 15.4994 13.9112 15.372 13.8173 15.2359L13.0258 14.1791C11.7162 15.2263 10.0898 15.7965 8.41388 15.796C4.96034 15.808 1.95934 13.4224 1.18757 10.0515C0.415791 6.68058 2.07921 3.22404 5.19304 1.72824C8.30686 0.232444 12.0401 1.0966 14.1825 3.8091C16.3249 6.5216 16.3047 10.3585 14.1339 13.0483L15.1893 13.7775C15.3541 13.8831 15.5063 14.0072 15.6431 14.1474ZM3.13727 8.39798C3.13727 11.3163 5.49977 13.6821 8.41405 13.6821C9.81355 13.6821 11.1557 13.1254 12.1453 12.1344C13.1349 11.1435 13.6908 9.79942 13.6908 8.39798C13.6908 5.47963 11.3283 3.11384 8.41405 3.11384C5.49977 3.11384 3.13727 5.47963 3.13727 8.39798Z" fill="black"></path>
    <path d="M19.8645 18.3747L20.1434 18.124L20.1368 18.1167L20.1299 18.1097L19.8645 18.3747ZM15.6431 14.1474L15.3746 14.4093L15.3777 14.4124L15.6431 14.1474ZM19.8434 19.1039L19.5795 18.8375L19.5781 18.8389L19.8434 19.1039ZM19.1047 19.8437L18.8393 19.5787L18.8382 19.5798L19.1047 19.8437ZM18.3553 19.8437L18.6218 19.5798L18.6207 19.5787L18.3553 19.8437ZM14.1339 15.6164L13.8685 15.8813L13.8686 15.8814L14.1339 15.6164ZM13.8173 15.2359L14.126 15.023L14.1218 15.017L14.1175 15.0111L13.8173 15.2359ZM13.0258 14.1791L13.3259 13.9543L13.0939 13.6445L12.7916 13.8862L13.0258 14.1791ZM8.41388 15.796L8.41399 15.421L8.41258 15.421L8.41388 15.796ZM1.18757 10.0515L0.822025 10.1352L1.18757 10.0515ZM5.19304 1.72824L5.03066 1.39022L5.19304 1.72824ZM14.1825 3.8091L13.8882 4.04153L14.1825 3.8091ZM14.1339 13.0483L13.8421 12.8128L13.5884 13.1272L13.9207 13.3568L14.1339 13.0483ZM15.1893 13.7775L14.976 14.0862L14.9869 14.0932L15.1893 13.7775ZM12.1453 12.1344L12.4107 12.3994L12.1453 12.1344ZM20.1299 18.1097L15.9084 13.8824L15.3777 14.4124L19.5992 18.6397L20.1299 18.1097ZM20.1073 19.3703C20.4498 19.0311 20.4656 18.4825 20.1434 18.124L19.5856 18.6254C19.6404 18.6864 19.6377 18.7799 19.5795 18.8375L20.1073 19.3703ZM19.37 20.1087L20.1088 19.3689L19.5781 18.8389L18.8393 19.5787L19.37 20.1087ZM18.73 20.375C18.9709 20.375 19.2016 20.2787 19.3711 20.1076L18.8382 19.5798C18.8095 19.6088 18.7705 19.625 18.73 19.625V20.375ZM18.0889 20.1076C18.2584 20.2787 18.4891 20.375 18.73 20.375V19.625C18.6895 19.625 18.6505 19.6088 18.6218 19.5798L18.0889 20.1076ZM13.8686 15.8814L18.09 20.1087L18.6207 19.5787L14.3993 15.3514L13.8686 15.8814ZM13.5086 15.4489C13.6153 15.6035 13.7358 15.7483 13.8685 15.8813L14.3994 15.3515C14.2986 15.2505 14.2071 15.1405 14.126 15.023L13.5086 15.4489ZM12.7256 14.4039L13.5172 15.4607L14.1175 15.0111L13.3259 13.9543L12.7256 14.4039ZM8.41377 16.171C10.1749 16.1716 11.8839 15.5724 13.26 14.472L12.7916 13.8862C11.5484 14.8803 10.0047 15.4215 8.41399 15.421L8.41377 16.171ZM0.822025 10.1352C1.63286 13.6767 4.78595 16.1837 8.41518 16.171L8.41258 15.421C5.13473 15.4324 2.28583 13.1681 1.55311 9.96781L0.822025 10.1352ZM5.03066 1.39022C1.75868 2.96199 0.0112115 6.59377 0.822025 10.1352L1.55311 9.96781C0.82037 6.7674 2.39975 3.48609 5.35541 2.06626L5.03066 1.39022ZM14.4767 3.57667C12.2257 0.726579 8.3028 -0.181627 5.03066 1.39022L5.35541 2.06626C8.31092 0.646515 11.8544 1.46661 13.8882 4.04153L14.4767 3.57667ZM14.4257 13.2838C16.7065 10.4578 16.7277 6.42659 14.4767 3.57667L13.8882 4.04153C15.922 6.61661 15.9029 10.2593 13.8421 12.8128L14.4257 13.2838ZM15.4024 13.469L14.3471 12.7398L13.9207 13.3568L14.9761 14.086L15.4024 13.469ZM15.9115 13.8855C15.7549 13.725 15.5804 13.5828 15.3916 13.4618L14.9869 14.0932C15.1277 14.1835 15.2578 14.2895 15.3747 14.4093L15.9115 13.8855ZM8.41405 13.3071C5.70736 13.3071 3.51227 11.1097 3.51227 8.39798H2.76227C2.76227 11.5229 5.29217 14.0571 8.41405 14.0571V13.3071ZM11.88 11.8695C10.9607 12.79 9.71392 13.3071 8.41405 13.3071V14.0571C9.91317 14.0571 11.3508 13.4608 12.4107 12.3994L11.88 11.8695ZM13.3158 8.39798C13.3158 9.70014 12.7993 10.9489 11.88 11.8695L12.4107 12.3994C13.4705 11.3381 14.0658 9.89871 14.0658 8.39798H13.3158ZM8.41405 3.48884C11.1207 3.48884 13.3158 5.68625 13.3158 8.39798H14.0658C14.0658 5.27302 11.5359 2.73884 8.41405 2.73884V3.48884ZM3.51227 8.39798C3.51227 5.68625 5.70736 3.48884 8.41405 3.48884V2.73884C5.29217 2.73884 2.76227 5.27302 2.76227 8.39798H3.51227Z" fill="white"></path>
  </symbol>
  <symbol fill="none" xmlns="http://www.w3.org/2000/svg" viewBox="0 0 16 14" id="share">
    <path d="M8 4C13.2 4 16 7.8 16 14C14.5 11.6 13.3 10 8 10V14L0 7L8 0V4Z" fill="#707070"></path>
  </symbol>
  <symbol fill="none" xmlns="http://www.w3.org/2000/svg" viewBox="0 0 21 21" id="shopping-cart">
    <path d="M6.76598 13.5766H6.76694C6.76775 13.5766 6.76855 13.5764 6.76935 13.5764H17.9238C18.1984 13.5764 18.4399 13.3942 18.5154 13.1302L20.9763 4.51693C21.0293 4.33124 20.9922 4.13161 20.876 3.97748C20.7597 3.82335 20.5778 3.73267 20.3848 3.73267H5.3471L4.9073 1.7535C4.84466 1.472 4.59504 1.27173 4.30665 1.27173H0.615242C0.275421 1.27173 7.62939e-06 1.54714 7.62939e-06 1.88696C7.62939e-06 2.22678 0.275421 2.5022 0.615242 2.5022H3.81318C3.89104 2.85291 5.91779 11.9734 6.03443 12.4982C5.38058 12.7824 4.92188 13.4343 4.92188 14.1916C4.92188 15.2093 5.74989 16.0374 6.76759 16.0374H17.9238C18.2637 16.0374 18.5391 15.7619 18.5391 15.4221C18.5391 15.0823 18.2637 14.8069 17.9238 14.8069H6.76759C6.42841 14.8069 6.15235 14.5308 6.15235 14.1916C6.15235 13.853 6.42744 13.5774 6.76598 13.5766ZM19.5691 4.96313L17.4597 12.3459H7.26105L5.62043 4.96313H19.5691Z" fill="black"></path>
    <path d="M6.15234 17.8828C6.15234 18.9005 6.98035 19.7285 7.99805 19.7285C9.01575 19.7285 9.84375 18.9005 9.84375 17.8828C9.84375 16.8651 9.01575 16.0371 7.99805 16.0371C6.98035 16.0371 6.15234 16.8651 6.15234 17.8828ZM7.99805 17.2676C8.33723 17.2676 8.61328 17.5436 8.61328 17.8828C8.61328 18.222 8.33723 18.498 7.99805 18.498C7.65887 18.498 7.38281 18.222 7.38281 17.8828C7.38281 17.5436 7.65887 17.2676 7.99805 17.2676Z" fill="black"></path>
    <path d="M14.8476 17.8828C14.8476 18.9005 15.6756 19.7285 16.6933 19.7285C17.711 19.7285 18.539 18.9005 18.539 17.8828C18.539 16.8651 17.711 16.0371 16.6933 16.0371C15.6756 16.0371 14.8476 16.8651 14.8476 17.8828ZM16.6933 17.2676C17.0325 17.2676 17.3086 17.5436 17.3086 17.8828C17.3086 18.222 17.0325 18.498 16.6933 18.498C16.3541 18.498 16.0781 18.222 16.0781 17.8828C16.0781 17.5436 16.3541 17.2676 16.6933 17.2676Z" fill="black"></path>
  </symbol>
  <symbol fill="none" xmlns="http://www.w3.org/2000/svg" viewBox="0 0 18 18" id="star">
    <g clip-path="url(#clip0_988_1218)">
      <path  d="M17.085 6.74504L17.0851 6.74506C17.2664 6.76146 17.4205 6.88398 17.4773 7.05839C17.5344 7.23412 17.4816 7.42451 17.3441 7.54519L13.4164 10.9892L13.1925 11.1855L13.2585 11.4759L14.4165 16.5761C14.4573 16.757 14.3872 16.9416 14.2392 17.0485L14.2388 17.0488C14.0903 17.1564 13.8933 17.165 13.7363 17.0711L9.25665 14.3921L9.00005 14.2387L8.74343 14.3921L4.26286 17.0712L4.26272 17.0712C4.19024 17.1146 4.10961 17.136 4.0289 17.136C3.93458 17.136 3.84149 17.1071 3.76181 17.0492L3.76082 17.0485C3.61289 16.9416 3.54275 16.7571 3.58354 16.5763C3.58356 16.5762 3.58357 16.5762 3.58358 16.5761L4.74158 11.4759L4.8075 11.1855L4.58364 10.9892L0.655856 7.54511C0.655844 7.5451 0.655833 7.54509 0.655821 7.54508C0.518482 7.42461 0.465875 7.23389 0.522437 7.05923C0.579917 6.88453 0.734077 6.76192 0.915387 6.74502C0.915529 6.745 0.915672 6.74499 0.915815 6.74498L6.11196 6.27331L6.4093 6.24632L6.52658 5.97176L8.58009 1.16406L8.58019 1.16382C8.65224 0.994891 8.81636 0.886475 9.00002 0.886475C9.18324 0.886475 9.34781 0.994537 9.42094 1.16443C9.421 1.16458 9.42107 1.16473 9.42113 1.16488L11.4743 5.97176L11.5916 6.24632L11.8889 6.27331L17.085 6.74504Z" stroke="black"></path>
    </g>
    <defs>
      <clipPath id="clip0_988_1218">
        <rect width="18" height="18"></rect>
      </clipPath>
    </defs>
  </symbol>
</svg>